<svg aria-hidden="true" style="position: absolute; width: 0; height: 0; overflow: hidden;" version="1.1" xmlns="http://www.w3.org/2000/svg" xmlns:xlink="http://www.w3.org/1999/xlink">
<defs>
<symbol id="netflix" viewBox="0 0 32 32">
<path fill="#e50914" style="fill: var(--color1, #e50914)" d="M7.187 0.005l6.333 17.947v-0.009l0.501 1.413c2.784 7.877 4.28 12.1 4.288 12.109 0.005 0 0.427 0.027 0.936 0.053 1.541 0.067 3.453 0.24 4.901 0.413 0.333 0.040 0.621 0.053 0.64 0.040l-6.28-17.813-0.581-1.64-3.231-9.133c-0.613-1.733-1.133-3.211-1.16-3.267l-0.041-0.119zM18.531 0.016l-0.013 7.075-0.011 7.075-0.583-1.643v-0.003l-0.753 15.747c0.74 2.089 1.136 3.204 1.14 3.209 0.005 0.005 0.427 0.032 0.936 0.056 1.543 0.067 3.453 0.24 4.907 0.413 0.333 0.040 0.623 0.053 0.64 0.040s0.027-7.227 0.023-16.013l-0.011-15.959zM7.187 0.003v15.987c0 8.792 0.009 15.993 0.020 16.004s0.555-0.040 1.209-0.115c0.653-0.080 1.56-0.173 2.013-0.213 0.691-0.067 2.757-0.2 2.997-0.2 0.069 0 0.075-0.36 0.084-6.773l0.011-6.773 0.507 1.413 0.173 0.501 0.76-15.733-0.253-0.728-1.173-3.253-0.040-0.116z"></path>
</symbol>
<symbol id="xbox" viewBox="0 0 32 32">
<path fill="#107c10" style="fill: var(--color2, #107c10)" d="M5.469 28.044c2.812 2.464 6.5 3.956 10.531 3.956 4.035 0 7.719-1.492 10.536-3.956 2.503-2.549-5.755-11.612-10.536-15.223-4.776 3.611-13.039 12.673-10.531 15.223zM20.349 8.836c3.333 3.948 9.979 13.751 8.101 17.216 2.219-2.745 3.549-6.237 3.549-10.047 0-4.453-1.82-8.483-4.76-11.381 0 0-0.036-0.029-0.109-0.056-0.084-0.029-0.203-0.060-0.375-0.060-0.789 0-2.647 0.579-6.407 4.328zM4.872 4.568c-0.076 0.027-0.109 0.055-0.115 0.056-2.937 2.899-4.757 6.928-4.757 11.381 0 3.805 1.331 7.297 3.548 10.044-1.868-3.473 4.772-13.268 8.107-17.213-3.76-3.751-5.621-4.327-6.408-4.327-0.175 0-0.297 0.028-0.375 0.061zM16 4.735c0 0-3.927-2.297-6.993-2.407-1.204-0.044-1.939 0.393-2.028 0.452 2.86-1.919 5.9-2.78 9-2.78h0.021c3.112 0 6.14 0.861 9.021 2.78-0.091-0.061-0.82-0.496-2.027-0.452-3.067 0.109-6.995 2.399-6.995 2.399z"></path>
</symbol>
<symbol id="mercedes" viewBox="0 0 32 32">
<path d="M16.007 0c8.831 0 16 7.169 16 16s-7.169 16-16 16-16-7.169-16-16 7.169-16 16-16zM4.333 23.385c2.487 3.888 6.782 6.428 11.671 6.428 0.001 0 0.002 0 0.002 0h-0c4.908 0 9.223-2.565 11.673-6.428l-11.673-4.448zM18.551 14.531l9.689 7.887c0.995-1.855 1.58-4.058 1.58-6.397 0-0.007 0-0.014-0-0.021v0.001c0-7.436-5.889-13.508-13.253-13.803zM15.447 2.197c-7.364 0.295-13.253 6.367-13.253 13.803 0 2.316 0.571 4.499 1.58 6.417l9.689-7.887z"></path>
</symbol>
<symbol id="appleinc" viewBox="0 0 32 32">
<path d="M24.734 17.003c-0.040-4.053 3.305-5.996 3.454-6.093-1.88-2.751-4.808-3.127-5.851-3.171-2.492-0.252-4.862 1.467-6.127 1.467-1.261 0-3.213-1.43-5.28-1.392-2.716 0.040-5.221 1.579-6.619 4.012-2.822 4.897-0.723 12.151 2.028 16.123 1.344 1.944 2.947 4.127 5.051 4.049 2.026-0.081 2.793-1.311 5.242-1.311s3.138 1.311 5.283 1.271c2.18-0.041 3.562-1.981 4.897-3.931 1.543-2.255 2.179-4.439 2.216-4.551-0.048-0.022-4.252-1.632-4.294-6.473zM20.705 5.11c1.117-1.355 1.871-3.235 1.665-5.11-1.609 0.066-3.559 1.072-4.713 2.423-1.036 1.199-1.942 3.113-1.699 4.951 1.796 0.14 3.629-0.913 4.747-2.264z"></path>
</symbol>
</defs>
</svg>
